<svg width="24" height="24" viewBox="0 0 24 24" fill="none" xmlns="http://www.w3.org/2000/svg">
<path fill-rule="evenodd" clip-rule="evenodd" d="M11.9999 9.16992C10.4341 9.16992 9.16992 10.4341 9.16992 11.9999C9.16992 13.5657 10.4341 14.8299 11.9999 14.8299C13.5657 14.8299 14.8299 13.5657 14.8299 11.9999C14.8299 10.4341 13.5657 9.16992 11.9999 9.16992ZM7.66992 11.9999C7.66992 9.60571 9.60571 7.66992 11.9999 7.66992C14.3941 7.66992 16.3299 9.60571 16.3299 11.9999C16.3299 14.3941 14.3941 16.3299 11.9999 16.3299C9.60571 16.3299 7.66992 14.3941 7.66992 11.9999Z" fill="#AFB0B1"/>
<path fill-rule="evenodd" clip-rule="evenodd" d="M2.25746 8.99693C4.64838 5.23857 8.15199 2.96997 12 2.96997C15.8481 2.96997 19.3519 5.23877 21.7428 8.99743C22.2878 9.85177 22.535 10.9461 22.535 11.995C22.535 13.0438 22.2878 14.1382 21.7428 14.9925C19.3519 18.7512 15.8481 21.02 12 21.02C8.15182 21.02 4.64807 18.7512 2.25715 14.9925C1.71217 14.1382 1.46497 13.0438 1.46497 11.995C1.46497 10.9459 1.71226 9.85135 2.25746 8.99693ZM12 4.46997C8.78811 4.46997 5.71186 6.36117 3.52278 9.80251L3.52216 9.8035C3.16757 10.359 2.96497 11.1542 2.96497 11.995C2.96497 12.8357 3.16757 13.6309 3.52216 14.1864L3.52279 14.1874C5.71186 17.6288 8.78811 19.52 12 19.52C15.2118 19.52 18.2881 17.6288 20.4771 14.1874L20.4778 14.1864C20.8324 13.6309 21.035 12.8357 21.035 11.995C21.035 11.1542 20.8324 10.359 20.4778 9.8035L20.4771 9.80251C18.2881 6.36117 15.2118 4.46997 12 4.46997Z" fill="#AFB0B1"/>
</svg>
